<?xml version="1.0" encoding="UTF-8" standalone="no"?>
<!-- Created with Inkscape (http://www.inkscape.org/) -->

<svg
   width="160"
   height="160"
   viewBox="0 0 160 160"
   version="1.1"
   id="svg1"
   xmlns:xlink="http://www.w3.org/1999/xlink"
   xmlns="http://www.w3.org/2000/svg"
   xmlns:svg="http://www.w3.org/2000/svg">
  <defs
     id="defs1">
    <linearGradient
       id="linearGradient1">
      <stop
         style="stop-color:#29abe1;stop-opacity:1;"
         offset="0"
         id="stop1" />
      <stop
         style="stop-color:#39b54b;stop-opacity:1;"
         offset="1"
         id="stop2" />
    </linearGradient>
    <linearGradient
       xlink:href="#linearGradient1"
       id="linearGradient3"
       gradientUnits="userSpaceOnUse"
       gradientTransform="matrix(0.83333334,0,0,0.83333334,16,16)"
       x1="0"
       y1="96"
       x2="192"
       y2="96" />
    <mask
       maskUnits="userSpaceOnUse"
       id="mask8">
      <circle
         style="fill:none;stroke:#ffffff;stroke-width:16;stroke-linejoin:bevel;stroke-dasharray:none;paint-order:markers fill stroke"
         id="circle8"
         r="72"
         cy="96"
         cx="96" />
    </mask>
  </defs>
  <rect
     style="fill:url(#linearGradient3);fill-opacity:1;stroke:none;stroke-width:40;stroke-linejoin:bevel;paint-order:markers fill stroke"
     id="rect1-2"
     width="160"
     height="160"
     x="16"
     y="16"
     mask="url(#mask8)"
     transform="translate(-16,-16)" />
  <path
     d="m 106.352,96.032003 c -3.36,0 -4.416,-1.344 -4.416,-5.952 v -26.112 h 7.68 v -10.272 H 50.383998 v 10.272 h 8.256 v 1.728 c 0,15.648 -0.768,28.992 -2.208,39.839997 h 13.152 c 0.48,-4.704 0.96,-10.943997 1.344,-18.527997 0.384,-7.584 0.576,-14.88 0.576,-21.792 v -1.248 h 17.568 v 29.28 c 0,9.215997 3.936,13.055997 14.400002,13.055997 2.208,0 4.128,-0.192 5.856,-0.576 v -9.983997 c -1.248,0.192 -2.208,0.288 -2.976,0.288 z"
     id="text5"
     style="font-weight:bold;font-size:96px;font-family:'Alibaba PuHuiTi 2.0';-inkscape-font-specification:'Alibaba PuHuiTi 2.0 Bold';stroke-width:16;stroke-linejoin:bevel;paint-order:markers fill stroke"
     aria-label="π" />
</svg>
