<?xml version="1.0" standalone="no"?>
<!DOCTYPE svg PUBLIC "-//W3C//DTD SVG 20010904//EN"
 "http://www.w3.org/TR/2001/REC-SVG-20010904/DTD/svg10.dtd">
<svg version="1.0" xmlns="http://www.w3.org/2000/svg"
 width="700.000000pt" height="700.000000pt" viewBox="0 0 700.000000 700.000000"
 preserveAspectRatio="xMidYMid meet">
<metadata>
Created by potrace 1.14, written by Peter Selinger 2001-2017
</metadata>
<g transform="translate(0.000000,700.000000) scale(0.100000,-0.100000)"
fill="#000000" stroke="none">
<path d="M3278 6996 c-1 -2 -41 -6 -88 -10 -47 -4 -101 -9 -120 -12 -139 -19
-252 -40 -360 -66 -69 -16 -133 -31 -143 -33 -10 -2 -68 -20 -129 -40 -613
-200 -1124 -533 -1554 -1011 -220 -245 -444 -589 -569 -874 -25 -58 -52 -118
-59 -135 -51 -115 -148 -423 -171 -546 -3 -13 -11 -58 -20 -99 -22 -115 -30
-160 -41 -255 -26 -230 -26 -667 1 -826 2 -13 6 -46 9 -74 9 -78 22 -152 51
-285 21 -96 91 -339 114 -395 5 -11 25 -65 46 -120 63 -166 249 -531 312 -610
4 -6 34 -49 65 -95 171 -256 432 -534 708 -755 92 -74 370 -265 386 -265 4 0
15 -6 23 -14 26 -22 298 -158 408 -204 282 -116 583 -199 862 -238 25 -3 57
-8 71 -10 163 -25 682 -25 842 1 13 2 46 7 73 10 71 10 87 13 115 18 14 3 43
8 65 12 325 59 741 212 1039 384 49 28 91 51 93 51 10 0 268 180 353 247 151
118 324 281 450 422 36 41 70 79 76 85 65 68 263 353 352 508 46 79 172 331
172 342 0 3 11 29 24 58 57 127 151 421 182 573 17 81 54 301 59 350 4 33 9
71 11 85 9 46 11 524 4 605 -15 153 -21 210 -25 225 -2 8 -7 35 -10 60 -17
129 -80 384 -136 552 -349 1039 -1173 1863 -2209 2207 -174 58 -415 118 -550
136 -19 3 -46 7 -60 10 -13 2 -52 7 -86 11 -33 3 -74 8 -90 10 -33 5 -540 14
-546 10z m457 -660 c288 -24 555 -87 820 -193 111 -44 317 -145 387 -189 21
-13 42 -24 47 -24 5 0 11 -3 13 -8 2 -4 28 -23 58 -42 30 -19 60 -38 65 -43 6
-4 44 -33 85 -64 41 -31 100 -76 130 -102 73 -60 285 -273 335 -336 22 -27 43
-52 46 -55 16 -13 131 -176 188 -265 62 -98 191 -345 206 -395 4 -14 11 -29
15 -35 23 -28 111 -302 135 -415 1 -8 8 -33 13 -55 6 -22 13 -56 16 -75 3 -19
8 -46 11 -60 3 -14 8 -45 11 -70 3 -25 8 -52 9 -61 23 -121 23 -580 0 -699 -2
-10 -6 -40 -10 -67 -10 -75 -13 -92 -19 -111 -3 -9 -7 -33 -10 -53 -3 -19 -13
-62 -21 -95 -9 -32 -18 -68 -20 -80 -24 -113 -143 -409 -235 -583 -58 -110
-209 -345 -247 -386 -11 -11 -24 -27 -29 -36 -37 -64 -286 -320 -414 -426
-301 -249 -652 -436 -1022 -544 -57 -17 -114 -33 -128 -35 -14 -3 -41 -9 -60
-14 -44 -12 -165 -32 -259 -44 -199 -25 -555 -26 -691 -2 -14 3 -47 7 -73 11
-182 23 -432 89 -637 170 -698 274 -1293 858 -1574 1545 -15 36 -31 74 -36 85
-32 67 -112 350 -134 475 -3 19 -8 46 -11 60 -3 14 -8 44 -11 66 -2 23 -6 51
-9 62 -23 123 -24 569 0 692 2 9 6 43 10 75 12 99 43 242 85 385 81 280 208
551 377 801 169 250 425 516 663 688 47 34 90 65 95 69 20 15 161 101 225 137
70 38 158 81 295 141 77 33 205 76 322 108 166 44 233 58 347 71 28 4 52 8 56
10 3 2 52 6 110 10 58 4 106 8 107 9 6 5 293 -2 368 -8z"/>
<path d="M2430 4539 c-97 -11 -140 -64 -140 -172 0 -78 44 -139 110 -151 14
-2 94 -5 178 -5 l152 -1 -5 -212 c-4 -199 -9 -294 -20 -428 -12 -141 -16 -177
-20 -200 -2 -14 -7 -45 -10 -70 -5 -38 -34 -202 -49 -275 -8 -41 -57 -223 -86
-325 -43 -151 -39 -191 27 -251 96 -89 268 -51 319 71 19 44 90 335 108 440 2
14 11 63 20 110 18 99 20 117 40 276 21 164 23 187 41 494 2 36 4 134 5 218
l2 152 378 0 378 0 0 -832 c0 -530 4 -842 10 -859 16 -39 61 -88 101 -109 44
-22 132 -21 171 1 43 25 89 83 97 122 4 22 8 407 8 857 l0 818 135 4 c109 2
141 7 163 21 41 27 58 61 64 126 5 48 1 68 -16 105 -41 83 29 78 -1113 80
-552 0 -1023 -1 -1048 -5z"/>
</g>
</svg>
