<?xml version="1.0" standalone="no"?>
<!DOCTYPE svg PUBLIC "-//W3C//DTD SVG 20010904//EN"
 "http://www.w3.org/TR/2001/REC-SVG-20010904/DTD/svg10.dtd">
<svg version="1.0" xmlns="http://www.w3.org/2000/svg"
 width="427.000000pt" height="427.000000pt" viewBox="0 0 427.000000 427.000000"
 preserveAspectRatio="xMidYMid meet">
<metadata>
Created by potrace 1.14, written by Peter Selinger 2001-2017
</metadata>
<g transform="translate(0.000000,427.000000) scale(0.100000,-0.100000)"
fill="#000000" stroke="none">
<path d="M1979 4266 c-2 -2 -35 -6 -74 -10 -323 -29 -677 -158 -960 -350 -103
-70 -98 -66 -188 -141 -63 -53 -198 -187 -246 -245 -12 -14 -32 -38 -46 -55
-57 -67 -171 -244 -225 -349 -123 -241 -191 -461 -224 -731 -13 -105 -15 -449
-2 -504 3 -12 8 -42 10 -65 5 -36 11 -68 32 -166 36 -171 133 -415 232 -585
28 -50 82 -136 92 -148 5 -7 41 -52 80 -101 254 -323 600 -570 982 -700 101
-34 253 -74 313 -82 28 -3 52 -7 55 -9 16 -10 188 -20 330 -20 164 1 245 7
350 25 30 6 69 13 85 15 17 3 38 8 47 11 9 3 25 6 35 8 103 20 338 111 473
183 521 278 904 751 1061 1313 14 52 12 44 32 140 21 102 25 120 34 198 9 82
10 409 0 477 -4 28 -9 68 -12 89 -10 74 -45 221 -74 311 -153 475 -439 856
-854 1136 -255 171 -600 304 -872 335 -27 3 -57 8 -65 11 -17 6 -395 15 -401
9z m286 -431 c123 -8 157 -13 255 -36 177 -43 375 -124 515 -212 141 -88 332
-258 432 -382 142 -178 259 -408 316 -626 61 -227 73 -418 43 -684 -5 -44 -35
-182 -53 -245 -44 -154 -169 -410 -250 -510 -6 -8 -41 -51 -76 -95 -207 -259
-535 -470 -866 -557 -131 -34 -131 -34 -197 -42 -27 -4 -65 -9 -84 -11 -40 -6
-276 -6 -330 -1 -192 19 -398 77 -587 168 -66 31 -235 136 -283 174 -370 299
-585 665 -655 1113 -14 87 -14 433 -1 496 3 17 13 64 21 105 26 134 77 277
150 422 267 532 825 896 1415 925 63 3 117 7 118 9 2 1 9 1 15 -1 7 -2 53 -6
102 -10z"/>
<path d="M1346 2831 c-2 -6 0 -231 3 -259 1 -9 20 -12 69 -11 37 0 85 1 108 0
l40 -1 -2 -157 c-1 -150 -12 -451 -19 -538 -1 -22 -6 -82 -10 -134 -4 -52 -8
-102 -10 -111 -2 -10 -6 -51 -10 -92 l-7 -74 176 0 176 0 1 25 c0 14 2 37 4
51 6 46 23 312 30 455 2 50 7 198 10 330 4 132 8 241 10 243 3 3 379 5 446 3
14 -1 16 -45 16 -423 0 -287 4 -441 12 -480 33 -158 158 -228 397 -223 141 4
132 -6 132 145 0 128 -2 137 -33 130 -32 -7 -101 1 -121 15 -13 8 -28 30 -33
48 -5 17 -9 202 -10 410 l-1 377 52 1 c29 0 76 1 103 2 l50 2 0 135 0 135
-788 1 c-433 0 -789 -2 -791 -5z"/>
</g>
</svg>
